<svg xmlns="http://www.w3.org/2000/svg" fill="none" viewBox="0 0 128 128"><path fill="#fff" d="M65.2723 31.8235C41.3535 31.5137 17.9839 42.6017 4.22859 61.7625L2.56006 64.0867L4.24521 66.3983C31.8344 104.249 92.1422 108.116 123.675 66.3537L125.498 63.9391L123.645 61.548C107.91 41.244 86.3772 32.0968 65.2723 31.8235ZM45.814 35.8831C46.0507 35.9114 46.2748 36.0049 46.4614 36.1531C46.648 36.3014 46.7898 36.4985 46.871 36.7225C46.9522 36.9466 46.9696 37.1888 46.9213 37.4221C46.873 37.6555 46.7609 37.8709 46.5974 38.0442C46.4894 38.1588 45.9813 38.8111 45.3867 39.6021C44.8574 40.3061 44.1882 41.1822 43.4899 42.0605C43.6792 42.281 43.7884 42.5591 43.7996 42.8495C45.4842 42.3131 47.1843 41.819 48.9123 41.4162C53.2564 38.2305 58.6095 36.3437 64.3961 36.3437C70.2684 36.3437 75.6968 38.2834 80.0746 41.5553C81.6953 41.9564 83.3039 42.4484 84.9054 42.9829C84.8984 42.6507 85.0201 42.3285 85.2452 42.084C84.5391 41.1969 83.8649 40.3128 83.3306 39.6021C82.7359 38.8111 82.2274 38.1588 82.1194 38.0442C81.9282 37.8415 81.8079 37.5821 81.7767 37.3051C81.7455 37.0281 81.8051 36.7485 81.9464 36.5082C82.0878 36.268 82.3033 36.0801 82.5606 35.9729C82.8178 35.8656 83.103 35.8448 83.3731 35.9135C84.4954 36.1989 86.4966 36.7423 88.3613 38.2097C88.704 38.4794 89.0365 38.7936 89.3612 39.1305C89.5594 39.0916 89.764 39.1 89.9584 39.1548C92.6128 40.01 94.1443 41.8258 94.9555 43.8316C95.1328 43.8392 95.3067 43.8834 95.4661 43.9614C95.6256 44.0394 95.7672 44.1495 95.882 44.2849C97.2788 46.046 98.1153 47.7433 98.5622 49.3456C104.604 53.0671 110.304 57.9106 115.424 64.0011C108.821 72.0138 101.016 77.9422 92.624 81.9567C92.721 82.1519 92.7669 82.3685 92.7573 82.5862C92.7477 82.8039 92.683 83.0156 92.5693 83.2015C90.9576 85.7159 88.9938 87.2326 86.9304 88.0976C86.9448 88.4146 86.8417 88.7258 86.6408 88.9714C84.7577 91.1777 82.6326 92.3645 80.5397 92.7663C78.5162 93.1547 76.5759 92.8226 74.8752 92.2193C74.9343 92.457 74.9243 92.7067 74.8465 92.939C74.7686 93.1712 74.6261 93.3765 74.4357 93.5306L72.9314 94.7117C72.6806 94.9085 72.3658 95.0053 72.0479 94.9834C71.7299 94.9614 71.4314 94.8223 71.2101 94.5929C67.1746 90.4099 69.1111 92.3881 64.6767 88.8263C64.5827 88.8273 64.4903 88.8348 64.3961 88.8348C64.2772 88.8348 64.1603 88.8263 64.0417 88.8246C59.6053 92.3882 61.5427 90.4094 57.5067 94.5929C57.2854 94.8223 56.9869 94.9614 56.6689 94.9834C56.351 95.0053 56.0362 94.9085 55.7855 94.7117L54.2812 93.5306C54.1025 93.3624 53.9757 93.1467 53.9156 92.9088C53.8554 92.671 53.8645 92.4209 53.9418 92.1881C52.2181 92.8136 50.2393 93.1622 48.1771 92.7663C46.0843 92.3645 43.9595 91.1777 42.0764 88.9714C41.9122 88.7235 41.839 88.4263 41.8692 88.1305C39.7754 87.2721 37.7807 85.7495 36.1475 83.2015C35.9926 82.9303 35.9416 82.6119 36.004 82.3058C26.9846 78.1874 18.8494 72.0459 12.4338 64.0514C17.351 57.8698 23.4705 52.7186 30.3367 48.7577C30.8153 47.3298 31.6075 45.8323 32.8348 44.2849C32.9496 44.1494 33.0913 44.0392 33.2508 43.9611C33.4103 43.883 33.5843 43.8388 33.7617 43.8312C34.5729 41.8255 36.1046 40.0099 38.7588 39.1548C38.9556 39.0945 39.164 39.0823 39.3666 39.1192C39.6878 38.7866 40.0167 38.4764 40.3555 38.2097C42.2203 36.7423 44.2218 36.1989 45.3441 35.9135C45.4975 35.8745 45.6569 35.8642 45.814 35.8831ZM44.0056 86.2004C44.9705 86.4263 45.9659 86.5053 46.9968 86.4741C45.8875 86.3902 44.8755 86.2777 44.0056 86.2004ZM84.712 86.2004C83.842 86.2778 82.8299 86.3902 81.7204 86.4741C82.7515 86.5053 83.747 86.4264 84.712 86.2004ZM72.2108 87.8904C72.185 87.8936 72.1592 87.8966 72.1334 87.8998C73.1065 88.5696 74.2946 89.2707 75.5876 89.7483C76.8696 90.2218 78.2248 90.4493 79.5783 90.2888C78.5747 90.1652 77.5944 89.9653 76.6848 89.7163C75.2063 89.3115 73.8974 88.7882 72.8993 88.2736C72.6504 88.1453 72.4215 88.0185 72.2108 87.8904ZM56.3981 87.9504C56.2156 88.0582 56.0275 88.1654 55.8175 88.2736C54.8194 88.7882 53.5105 89.3115 52.032 89.7163C51.1225 89.9652 50.1425 90.1652 49.1389 90.2888C50.4923 90.4493 51.8477 90.2218 53.1296 89.7483C54.3835 89.2852 55.5373 88.6118 56.4942 87.9606C56.4622 87.957 56.4301 87.9541 56.3981 87.9504Z"/><path fill="#fff" d="M46.1249 81.4033C47.3187 83.3421 48.9837 85.2893 50.6293 85.5006C42.8914 84.6396 41.0436 85.3922 37.2312 82.507C41.8256 89.6749 48.5817 87.8543 53.8074 86.5954C50.9414 85.326 48.3443 83.5591 46.1249 81.4033ZM55.1718 87.1561C52.4388 88.5492 46.7472 90.2068 43.0554 88.1362C48.6921 94.74 55.5008 90.4241 58.4367 88.1439C57.3198 87.8834 56.2293 87.5546 55.1718 87.1561ZM60.0728 88.4723C58.8207 89.1998 57.0428 90.3498 55.0757 92.5181L56.5804 93.6993C60.2541 89.8913 59.0219 91.147 62.1006 88.7282C61.4168 88.6686 60.7407 88.5835 60.0728 88.4723ZM82.5918 81.4033C81.398 83.3421 79.733 85.2893 78.0874 85.5006C85.8253 84.6396 87.6731 85.3922 91.4855 82.507C86.8911 89.6749 80.135 87.8543 74.9093 86.5954C77.7753 85.326 80.3724 83.5591 82.5918 81.4033ZM73.5449 87.1561C76.2779 88.5492 81.9695 90.2068 85.6613 88.1362C80.0246 94.74 73.2159 90.4241 70.28 88.1439C71.3969 87.8834 72.4874 87.5546 73.5449 87.1561ZM68.6439 88.4723C69.896 89.1998 71.6739 90.3498 73.641 92.5181L72.1363 93.6993C68.4626 89.8913 69.6948 91.147 66.6161 88.7282C67.2999 88.6686 67.976 88.5835 68.6439 88.4723Z"/><path fill="#fff" d="M39.887 71.9618C40.9218 77.4589 41.3397 79.8824 43.2828 81.7422C40.5963 79.6084 35.1565 78.0063 32.0784 74.3792C34.5429 81.4736 39.155 83.2218 46.8859 84.1832C45.8329 83.3496 44.9558 81.3835 44.0987 79.2064C42.3304 77.0506 40.9026 74.6078 39.887 71.9618ZM88.8296 71.9618C87.7947 77.4589 87.3769 79.8824 85.4337 81.7422C88.1202 79.6084 93.56 78.0063 96.6382 74.3792C94.1736 81.4736 89.5616 83.2218 81.8307 84.1832C82.8837 83.3496 83.7608 81.3835 84.6179 79.2064C86.3862 77.0506 87.814 74.6078 88.8296 71.9618Z"/><path fill="#fff" d="M40.2826 78.7221C35.1006 75.3555 29.3378 72.9808 29.6361 64.9059C31.0505 68.8662 35.4165 71.5618 37.2961 74.9094C35.3827 71.593 37.0465 64.7961 37.2378 64.1503C39.0683 66.2276 38.0857 75.7949 40.2826 78.7221ZM88.4341 78.7221C93.6161 75.3555 99.3789 72.9808 99.0805 64.9059C97.6662 68.8662 93.3001 71.5618 91.4205 74.9094C93.334 71.593 91.6702 64.7961 91.4789 64.1503C89.6484 66.2276 90.6309 75.7949 88.4341 78.7221Z"/><path fill="#fff" d="M35.1973 70.8444C32.4803 66.9615 28.2384 64.2407 30.1306 54.3301C30.2377 58.3106 33.7498 63.19 33.6357 66.2917C33.3485 61.7173 37.1681 56.5861 37.5399 55.5412C37.6836 63.0558 35.2549 62.977 35.1973 70.8444ZM93.5196 70.8444C96.2366 66.9615 100.478 64.2407 98.5863 54.3301C98.4792 58.3106 94.9671 63.19 95.0812 66.2917C95.3684 61.7173 91.5488 56.5861 91.177 55.5412C91.0332 63.0558 93.462 62.977 93.5196 70.8444Z"/><path fill="#fff" d="M33.3669 61.5546C32.866 57.2885 28.0271 52.4176 33.8433 45.0846C32.2781 48.4341 34.212 52.8543 33.5748 57.2612C34.1528 53.1984 39.1448 49.7444 39.5451 49.4487C39.2415 53.5328 34.0832 57.7915 33.3669 61.5546ZM95.3497 61.5546C95.8506 57.2885 100.69 52.4176 94.8733 45.0846C96.4385 48.4341 94.5046 52.8543 95.1419 57.2612C94.5638 53.1984 89.5718 49.7444 89.1715 49.4487C89.4751 53.5328 94.6335 57.7915 95.3497 61.5546Z"/><path fill="#fff" d="M34.324 53.3504C34.4672 49.8985 32.7618 42.439 39.1533 40.3799C36.3253 43.0038 37.1398 45.7581 35.6972 49.426C36.5179 47.3694 41.7654 44.5099 42.5447 42.901C41.9454 47.9799 35.5193 50.3968 34.324 53.3504ZM94.3927 53.3504C94.2496 49.8985 95.9549 42.439 89.5635 40.3799C92.3914 43.0038 91.5769 45.7581 93.0195 49.426C92.1989 47.3694 86.9514 44.5099 86.172 42.901C86.7713 47.9799 93.1974 50.3968 94.3927 53.3504Z"/><path fill="#fff" d="M37.551 46.0101C40.2697 44.8804 44.669 38.2128 45.661 37.1611C43.4785 37.7161 38.5216 39.1498 37.551 46.0101ZM91.1659 46.0101C88.4472 44.8804 84.0479 38.2128 83.0559 37.1611C85.2384 37.7161 90.1953 39.1498 91.1659 46.0101Z"/><path stroke="#fff" stroke-width="1.649" d="M64.3658 86.6097C71.0181 86.6097 76.4108 75.8618 76.4108 62.6037C76.4108 49.3456 71.0181 38.5978 64.3658 38.5978C57.7135 38.5978 52.3208 49.3456 52.3208 62.6037C52.3208 75.8618 57.7135 86.6097 64.3658 86.6097Z"/><path stroke="#fff" stroke-width="1.649" d="M82.037 46.16C80.7659 47.4416 78.3716 48.5519 75.192 49.3342C72.0123 50.1164 68.2079 50.5312 64.3153 50.5199C60.4228 50.5086 56.6386 50.0719 53.4968 49.2713C50.355 48.4707 48.0141 47.3467 46.8044 46.0578"/><path stroke="#fff" stroke-width="1.649" d="M82.0065 79.0828C80.7354 77.8012 78.3411 76.6909 75.1614 75.9086C71.9818 75.1264 68.1773 74.7116 64.2848 74.7229C60.3922 74.7342 56.6081 75.1709 53.4663 75.9715C50.3245 76.7721 47.9836 77.8961 46.7739 79.185"/><path stroke="#fff" stroke-width="1.667" d="M64.3959 86.7144C77.7198 86.7144 88.5209 75.9133 88.5209 62.5895C88.5209 49.2656 77.7198 38.4645 64.3959 38.4645C51.0721 38.4645 40.271 49.2656 40.271 62.5895C40.271 75.9133 51.0721 86.7144 64.3959 86.7144Z"/><path fill="#fff" d="M65.2398 38.908H63.4788V86.4619H65.2398V38.908Z"/><path fill="#fff" d="M88.0125 63.4312V61.6701H40.4585V63.4312H88.0125Z"/><style>@media (prefers-color-scheme:light){path[fill=white]{fill:#000}path[stroke=white]{stroke:#000}}</style></svg>