<svg xmlns="http://www.w3.org/2000/svg" fill="none" viewBox="0 0 24 24"><path fill="currentColor" d="M21.5692 2.33846C21.455 2.23297 21.3187 2.14945 21.1692 2.09231C18.5495 1.60439 12.7692 10.4835 15.5473 15.9473C16.5583 14.9934 17.5649 13.811 18.4572 12.5538C20.5187 9.65275 21.7319 6.95824 22 4.94505V3.43736C21.9253 3.00659 21.7846 2.63736 21.5692 2.33846Z"/><path fill="currentColor" d="M16.7473 17.5692C17.6088 18.2198 19.578 18.4484 22 17.2923V8.32088C20.9714 11.6747 18.9583 15.2264 16.7033 17.5253C16.7165 17.5385 16.7297 17.5517 16.7473 17.5692Z"/><path fill="currentColor" d="M16.0615 18.1319C14.9099 19.1648 13.7143 19.8418 12.5714 19.9868C10.6593 20.1407 9.82418 18.1626 9.34066 16.1846C9.03297 16.9319 6.85714 20.2549 5.34066 20.1407C4.15385 20.0527 3.36264 16.6242 3.36264 16.0527C3.3978 15.578 3.45934 15.0549 3.56044 14.4923C3.64835 14.0132 3.75385 13.5736 3.86813 13.1736C3.46813 13.7582 2.98901 14.3692 2.41758 14.9758C2.32088 15.0769 2.14505 15.2571 2 15.4022V20.6989C2 21.4154 2.58462 22 3.30549 22H20.6989C21.4198 22 22 21.4154 22 20.6989V19.4154C20.6857 19.8462 17.9736 20.7956 16.0615 18.1319Z"/><path fill="currentColor" d="M3.51648 11.811C3.97363 11.3231 4.36484 10.8484 4.7033 10.4044C4.79121 10.7429 4.90549 11.1121 5.05495 11.5033C5.16044 11.7758 5.27473 12.0308 5.38901 12.2637C3.08132 16.2374 3.90769 18.0527 4.37363 18.1626C5.20879 18.4703 8.24176 17.4593 9.98681 10.2286C10.189 10.7868 10.3516 11.4813 10.5934 11.8989C9.20879 16.6242 9.95604 17.1956 10.1758 17.5033C11.2791 18.8 13.1868 18.0352 15.1253 16.3341C14.9538 15.8857 14.7956 15.3846 14.6593 14.822C13.4198 10.3868 14.7209 4.68571 17.7231 2H3.30549C2.58462 2 2 2.58462 2 3.30549V13.2659C2.46154 12.8659 3.05495 12.3033 3.51648 11.811Z"/></svg>