<svg xmlns="http://www.w3.org/2000/svg" fill="none" viewBox="0 0 24 24"><path fill="currentColor" d="M18.098 21.6932C17.9487 21.6737 17.7139 21.625 17.5763 21.585C17.4386 21.545 17.2083 21.4362 17.0646 21.3433C16.9208 21.2503 16.7479 21.1087 16.6804 21.0285C16.6129 20.9483 16.5041 20.7913 16.4387 20.6795C16.3732 20.5678 16.2718 20.3446 16.2133 20.1834C16.1548 20.0222 16.0781 19.6878 16.0429 19.4403C15.9925 19.0853 15.9788 18.3382 15.9781 15.9021C15.9774 13.3146 15.9666 12.7781 15.9115 12.5923C15.8723 12.4605 15.7862 12.3134 15.6991 12.2296C15.6051 12.1391 15.4643 12.0664 15.3066 12.0268C15.1152 11.9787 15.0607 11.946 15.0607 11.8791C15.0607 11.8196 15.2623 11.6479 15.7136 11.323C16.0727 11.0644 16.5555 10.6988 16.7866 10.5106C17.0178 10.3223 17.2556 10.1161 17.3152 10.0523C17.3749 9.98846 17.4601 9.93624 17.5046 9.93624C17.5804 9.93624 17.5862 10.0139 17.5974 11.177C17.6092 12.4177 17.6092 12.4177 19.0714 12.4401C20.0442 12.455 20.5499 12.4789 20.5825 12.5115C20.6118 12.5408 20.6261 12.6934 20.6182 12.8915C20.6049 13.2225 20.6049 13.2225 19.2615 13.2449C18.0821 13.2645 17.9035 13.2768 17.7989 13.3454C17.7245 13.3942 17.6611 13.4932 17.6298 13.6095C17.5944 13.7409 17.5853 14.5775 17.5989 16.4599C17.6154 18.7458 17.6286 19.1642 17.6916 19.4047C17.732 19.5589 17.814 19.7815 17.8737 19.8994C17.9335 20.0173 18.0617 20.1854 18.1586 20.2729C18.2555 20.3605 18.4331 20.4638 18.5533 20.5024C18.6734 20.541 18.8824 20.5852 19.0176 20.6006C19.1529 20.616 19.4402 20.6064 19.656 20.5793C19.8719 20.5522 20.189 20.4793 20.3608 20.4173C20.5326 20.3554 20.693 20.317 20.7173 20.332C20.7415 20.347 20.7614 20.5288 20.7614 20.736C20.7614 21.1128 20.7614 21.1128 20.4825 21.2536C20.3292 21.331 20.075 21.4428 19.9176 21.502C19.7603 21.5612 19.4921 21.639 19.3217 21.6748C19.1513 21.7107 18.8673 21.7375 18.6906 21.7344C18.5139 21.7312 18.2472 21.7127 18.098 21.6932ZM4.18247 21.597C4.15296 21.5674 4.12912 21.4618 4.1295 21.3622C4.12987 21.2626 4.14681 21.1549 4.16713 21.1229C4.18746 21.0908 4.33894 21.0455 4.50376 21.0222C4.66857 20.9988 4.88049 20.9404 4.97467 20.8924C5.06886 20.8443 5.19826 20.7428 5.26222 20.6668C5.32619 20.5908 5.4092 20.4253 5.44669 20.299C5.50375 20.1069 5.51486 19.7101 5.51486 17.8644C5.51486 16.6516 5.50616 15.6593 5.49553 15.6593C5.4849 15.6593 5.11972 15.78 4.68402 15.9276C4.24832 16.0751 3.85462 16.1958 3.80913 16.1958C3.74497 16.1958 3.72641 16.1619 3.72641 16.0448C3.72641 15.9618 3.75156 15.8739 3.7823 15.8495C3.81304 15.8252 3.94885 15.7699 4.0841 15.7267C4.21935 15.6835 4.5966 15.5477 4.92244 15.4248C5.51486 15.2015 5.51486 15.2015 5.51388 14.8603C5.51319 14.6209 5.48726 14.4627 5.42689 14.3297C5.36829 14.2006 5.27424 14.098 5.13167 14.0075C5.0166 13.9346 4.80927 13.8529 4.67094 13.8262C4.53261 13.7994 4.37456 13.7588 4.31971 13.7361C4.26487 13.7133 4.23001 13.6686 4.24224 13.6367C4.25447 13.6049 4.58736 13.4296 4.98199 13.2474C5.37663 13.0651 5.99485 12.7482 6.35583 12.5433C6.7168 12.3383 7.03706 12.1802 7.06751 12.1919C7.10895 12.2078 7.12589 12.4862 7.13484 13.2991C7.14648 14.3547 7.14932 14.3848 7.23625 14.3758C7.28543 14.3708 7.6174 14.2119 7.97399 14.0228C8.33055 13.8337 8.9241 13.4984 9.29296 13.2778C9.66184 13.0572 10.2856 12.6643 10.679 12.4046C11.0725 12.145 11.6459 11.7502 11.9533 11.5275C12.2607 11.3047 12.7637 10.9227 13.0711 10.6785C13.3785 10.4344 13.8915 10.0094 14.2112 9.7342C14.5309 9.45896 15.0661 8.97434 15.4007 8.65725C15.7352 8.34018 16.2457 7.83003 16.5351 7.52362C16.8244 7.21718 17.2664 6.72424 17.5172 6.42817C17.768 6.1321 18.1341 5.67861 18.3308 5.42041C18.5276 5.1622 18.8813 4.65921 19.1169 4.30263C19.3525 3.94606 19.6568 3.45312 19.7931 3.2072C19.9294 2.96129 20.1276 2.58907 20.2335 2.38005C20.3394 2.17102 20.4462 2 20.4708 2C20.4992 2 20.5198 2.43942 20.5274 3.20499C20.5393 4.40998 20.5393 4.40998 20.2854 4.79223C20.1457 5.00249 19.88 5.3757 19.6949 5.62161C19.5098 5.86753 19.1972 6.26992 19.0002 6.51583C18.8033 6.76174 18.3971 7.23456 18.0976 7.56655C17.798 7.89854 17.3443 8.37162 17.0893 8.61787C16.8343 8.86413 16.4445 9.22653 16.2232 9.42322C16.0019 9.6199 15.6498 9.92207 15.4408 10.0947C15.2317 10.2673 14.8796 10.5493 14.6583 10.7214C14.437 10.8935 14.0145 11.206 13.7194 11.416C13.4243 11.626 12.9313 11.956 12.624 12.1493C12.3166 12.3427 11.7331 12.6992 11.3273 12.9416C10.9216 13.1841 10.0463 13.6509 9.38239 13.9792C8.71842 14.3073 7.94851 14.6716 7.67145 14.7886C7.28718 14.9508 7.1619 15.0244 7.14329 15.0985C7.12988 15.152 7.12586 16.301 7.13438 17.6519C7.14833 19.8667 7.15757 20.1278 7.22849 20.3091C7.27173 20.4197 7.37165 20.5781 7.45053 20.6612C7.5294 20.7444 7.67658 20.8497 7.7776 20.8954C7.87862 20.9411 8.0981 20.9979 8.26533 21.0216C8.43254 21.0452 8.58601 21.0908 8.60633 21.1229C8.62665 21.1549 8.64358 21.2626 8.64397 21.3622C8.64434 21.4618 8.62051 21.5674 8.59099 21.597C8.55074 21.6372 7.99981 21.6506 6.38674 21.6506C4.77365 21.6506 4.22271 21.6372 4.18247 21.597ZM13.1247 21.597C13.0899 21.5622 13.0711 21.3813 13.0711 21.0828C13.0711 20.8295 13.0605 20.6222 13.0476 20.6222C13.0348 20.6222 12.8803 20.7319 12.7044 20.8659C12.5285 20.9999 12.2617 21.1701 12.1115 21.244C11.9613 21.3179 11.7184 21.4106 11.5717 21.4499C11.425 21.4892 11.1596 21.5332 10.982 21.5476C10.7852 21.5636 10.5494 21.5512 10.3784 21.5157C10.224 21.4837 9.99275 21.4118 9.86438 21.3559C9.73604 21.3 9.5278 21.1578 9.40164 21.0398C9.27548 20.9218 9.12672 20.7343 9.07104 20.6231C9.01538 20.512 8.94707 20.3506 8.91926 20.2645C8.8858 20.161 8.86482 19.4805 8.85728 18.2525C8.84632 16.4725 8.84202 16.3888 8.75173 16.1958C8.69997 16.0852 8.61611 15.9578 8.56534 15.9127C8.51458 15.8677 8.38592 15.8051 8.2794 15.7737C8.14531 15.7341 8.08576 15.6921 8.08576 15.6372C8.08576 15.5776 8.24144 15.4922 8.71172 15.294C9.056 15.1488 9.53439 14.9382 9.77483 14.826C10.1253 14.6624 10.2248 14.6326 10.2765 14.6755C10.3311 14.7209 10.3429 15.135 10.3535 17.3739C10.366 20.0038 10.3666 20.0197 10.4647 20.203C10.5189 20.3045 10.6255 20.4397 10.7014 20.5036C10.7774 20.5676 10.9242 20.6427 11.0276 20.6707C11.1385 20.7006 11.3313 20.7096 11.498 20.6926C11.6533 20.6768 11.8645 20.6308 11.9674 20.5905C12.0703 20.5502 12.2651 20.4426 12.4004 20.3515C12.5356 20.2604 12.7426 20.0958 12.8603 19.9858C13.0744 19.7857 13.0744 19.7857 13.0615 17.063C13.0489 14.3826 13.0472 14.3371 12.9523 14.1318C12.8993 14.017 12.8088 13.8963 12.7511 13.8635C12.6935 13.8306 12.5558 13.7719 12.4451 13.7328C12.3345 13.6938 12.2439 13.6352 12.2439 13.6026C12.2439 13.57 12.5055 13.3847 12.8252 13.1907C13.1448 12.9968 13.6185 12.6983 13.8778 12.5273C14.1371 12.3564 14.3835 12.2165 14.4255 12.2165C14.4969 12.2165 14.5019 12.4702 14.5026 16.1176C14.5033 19.3789 14.5142 20.0696 14.5692 20.3292C14.6108 20.5257 14.6911 20.7243 14.7877 20.8698C14.878 21.0058 15.0043 21.1301 15.0967 21.174C15.1827 21.2148 15.3114 21.2482 15.3827 21.2482C15.454 21.2482 15.5365 21.2723 15.5659 21.3019C15.5955 21.3314 15.6196 21.3977 15.6196 21.4494C15.6196 21.501 15.5955 21.5674 15.5659 21.597C15.527 21.6359 15.1934 21.6506 14.3453 21.6506C13.4973 21.6506 13.1637 21.6359 13.1247 21.597ZM5.74853 11.7644C5.61884 11.7428 5.41673 11.6765 5.29938 11.617C5.18203 11.5576 5.00208 11.4249 4.89948 11.3223C4.79688 11.2197 4.65837 11.0218 4.59168 10.8825C4.48998 10.6701 4.47011 10.568 4.46846 10.2492C4.46679 9.92375 4.48482 9.82916 4.59407 9.59043C4.67379 9.41623 4.80387 9.23478 4.94087 9.10663C5.06145 8.99384 5.25501 8.85773 5.37101 8.80416C5.54081 8.72573 5.66472 8.70675 6.00668 8.70672C6.38005 8.7067 6.46186 8.72162 6.68293 8.83018C6.82123 8.89812 7.02889 9.0547 7.14438 9.17815C7.25986 9.30163 7.39808 9.49756 7.45155 9.61354C7.52847 9.78041 7.54882 9.90854 7.54899 10.2269C7.54921 10.5767 7.53298 10.6624 7.42495 10.8823C7.35661 11.0215 7.22148 11.217 7.1247 11.3167C7.02789 11.4165 6.85162 11.5473 6.73299 11.6074C6.61433 11.6675 6.39869 11.7386 6.25377 11.7654C6.10884 11.7922 5.98893 11.8118 5.98729 11.8089C5.98566 11.806 5.87822 11.786 5.74853 11.7644Z"/></svg>