<svg viewBox="0 0 593 311" fill="none" xmlns="http://www.w3.org/2000/svg">
<path d="M302.078 0.0304557C186.864 -1.46168 74.2948 51.9481 8.03711 144.243L0 155.439L8.11719 166.573C141.011 348.897 431.507 367.522 583.396 166.359L592.178 154.728L583.252 143.21C507.461 45.4081 403.738 1.34705 302.078 0.0304557ZM208.35 19.5851C209.489 19.7218 210.569 20.1722 211.468 20.8861C212.367 21.6 213.05 22.5494 213.441 23.6286C213.832 24.7078 213.916 25.8745 213.683 26.9986C213.451 28.1226 212.911 29.1601 212.123 29.9953C211.603 30.5468 209.155 33.6892 206.291 37.4992C203.741 40.8904 200.518 45.1103 197.154 49.341C198.067 50.4031 198.592 51.7427 198.646 53.1418C206.761 50.5579 214.95 48.1779 223.273 46.2375C244.199 30.8926 269.984 21.8039 297.857 21.8039C326.144 21.8039 352.291 31.1472 373.379 46.9074C381.186 48.8398 388.934 51.2097 396.648 53.7844C396.615 52.1838 397.201 50.6322 398.285 49.4543C394.884 45.1811 391.636 40.9227 389.062 37.4992C386.198 33.6892 383.749 30.5468 383.229 29.9953C382.307 29.0185 381.728 27.7691 381.578 26.4349C381.428 25.1007 381.714 23.7537 382.395 22.5965C383.076 21.4393 384.114 20.5344 385.354 20.0178C386.593 19.5011 387.966 19.4007 389.268 19.7316C394.673 21.1063 404.313 23.724 413.295 30.7922C414.946 32.0912 416.547 33.6046 418.111 35.2277C419.066 35.0405 420.052 35.0806 420.988 35.3449C433.774 39.4639 441.151 48.2104 445.059 57.8723C445.913 57.9089 446.75 58.1217 447.518 58.4975C448.286 58.8733 448.968 59.4038 449.521 60.0558C456.25 68.5388 460.279 76.7144 462.432 84.4328C491.535 102.359 518.988 125.689 543.652 155.027C511.849 193.623 474.251 222.179 433.828 241.517C434.295 242.457 434.516 243.5 434.47 244.549C434.424 245.598 434.112 246.617 433.564 247.513C425.801 259.625 416.342 266.93 406.402 271.097C406.472 272.624 405.976 274.123 405.008 275.306C395.937 285.933 385.7 291.65 375.619 293.585C365.872 295.456 356.526 293.856 348.334 290.95C348.619 292.096 348.571 293.298 348.196 294.417C347.821 295.536 347.134 296.525 346.217 297.267L338.971 302.956C337.763 303.904 336.247 304.37 334.715 304.265C333.184 304.159 331.746 303.489 330.68 302.384C311.241 282.235 320.569 291.763 299.209 274.607C298.756 274.612 298.311 274.648 297.857 274.648C297.285 274.648 296.721 274.607 296.15 274.599C274.781 291.764 284.113 282.232 264.672 302.384C263.606 303.489 262.168 304.159 260.636 304.265C259.105 304.37 257.588 303.904 256.381 302.956L249.135 297.267C248.274 296.457 247.663 295.418 247.374 294.272C247.084 293.126 247.128 291.922 247.5 290.8C239.197 293.813 229.666 295.492 219.732 293.585C209.651 291.65 199.417 285.933 190.346 275.306C189.555 274.111 189.202 272.68 189.348 271.255C179.262 267.121 169.654 259.786 161.787 247.513C161.041 246.206 160.795 244.673 161.096 243.198C117.65 223.361 78.4639 193.778 47.5605 155.269C71.2464 125.493 100.723 100.68 133.797 81.6008C136.102 74.7227 139.918 67.5093 145.83 60.0558C146.383 59.4032 147.066 58.8722 147.834 58.4961C148.602 58.1199 149.44 57.9069 150.295 57.8703C154.202 48.2091 161.58 39.4637 174.365 35.3449C175.313 35.0543 176.317 34.9954 177.293 35.173C178.84 33.5711 180.424 32.0767 182.057 30.7922C191.039 23.724 200.68 21.1063 206.086 19.7316C206.825 19.544 207.592 19.4944 208.35 19.5851ZM199.639 261.958C204.286 263.046 209.081 263.427 214.047 263.277C208.704 262.872 203.829 262.331 199.639 261.958ZM395.717 261.958C391.526 262.331 386.651 262.872 381.307 263.277C386.273 263.427 391.068 263.047 395.717 261.958ZM335.5 270.099C335.376 270.114 335.251 270.129 335.127 270.144C339.814 273.37 345.537 276.748 351.766 279.048C357.941 281.329 364.469 282.425 370.988 281.652C366.154 281.056 361.432 280.093 357.051 278.894C349.929 276.944 343.624 274.423 338.816 271.945C337.617 271.326 336.515 270.716 335.5 270.099ZM259.332 270.388C258.453 270.907 257.547 271.423 256.535 271.945C251.727 274.423 245.423 276.944 238.301 278.894C233.92 280.093 229.199 281.056 224.365 281.652C230.884 282.425 237.413 281.329 243.588 279.048C249.628 276.817 255.186 273.574 259.795 270.437C259.641 270.419 259.486 270.406 259.332 270.388Z" fill="currentColor"/>
<path d="M209.848 238.851C215.598 248.19 223.618 257.57 231.545 258.587C194.272 254.44 185.372 258.065 167.008 244.167C189.139 278.694 221.682 269.924 246.854 263.861C233.048 257.746 220.538 249.235 209.848 238.851ZM253.426 266.562C240.261 273.272 212.845 281.256 195.062 271.282C222.214 303.092 255.011 282.303 269.152 271.32C263.772 270.065 258.52 268.481 253.426 266.562ZM277.033 272.902C271.002 276.406 262.438 281.945 252.963 292.39L260.211 298.079C277.906 279.737 271.971 285.785 286.801 274.134C283.507 273.847 280.25 273.437 277.033 272.902ZM385.505 238.851C379.754 248.19 371.734 257.57 363.808 258.587C401.08 254.44 409.981 258.065 428.345 244.167C406.214 278.694 373.67 269.924 348.499 263.861C362.304 257.746 374.814 249.235 385.505 238.851ZM341.927 266.562C355.091 273.272 382.507 281.256 400.29 271.282C373.139 303.092 340.342 282.303 326.2 271.32C331.58 270.065 336.833 268.481 341.927 266.562ZM318.319 272.902C324.35 276.406 332.914 281.945 342.39 292.39L335.142 298.079C317.446 279.737 323.381 285.785 308.552 274.134C311.845 273.847 315.102 273.437 318.319 272.902Z" fill="currentColor"/>
<path d="M179.801 193.372C184.785 219.851 186.798 231.525 196.158 240.484C183.218 230.205 157.015 222.488 142.188 205.017C154.059 239.19 176.275 247.61 213.514 252.241C208.441 248.226 204.217 238.756 200.088 228.269C191.57 217.885 184.693 206.118 179.801 193.372ZM415.552 193.372C410.567 219.851 408.554 231.525 399.194 240.484C412.135 230.205 438.338 222.488 453.165 205.017C441.293 239.19 419.078 247.61 381.839 252.241C386.911 248.226 391.136 238.756 395.265 228.269C403.782 217.885 410.66 206.118 415.552 193.372Z" fill="currentColor"/>
<path d="M181.706 225.936C156.745 209.719 128.986 198.281 130.423 159.385C137.236 178.461 158.267 191.446 167.321 207.571C158.104 191.596 166.118 158.856 167.039 155.745C175.857 165.751 171.124 211.836 181.706 225.936ZM413.646 225.936C438.607 209.719 466.366 198.281 464.929 159.385C458.117 178.461 437.086 191.446 428.032 207.571C437.249 191.596 429.234 158.856 428.313 155.745C419.496 165.751 424.228 211.836 413.646 225.936Z" fill="currentColor"/>
<path d="M157.21 187.99C144.123 169.287 123.69 156.181 132.805 108.443C133.32 127.616 150.238 151.12 149.688 166.06C148.305 144.026 166.703 119.309 168.494 114.276C169.187 150.473 157.488 150.094 157.21 187.99ZM438.142 187.99C451.23 169.287 471.662 156.181 462.548 108.443C462.032 127.616 445.115 151.12 445.664 166.06C447.048 144.026 428.649 119.309 426.858 114.276C426.166 150.473 437.865 150.094 438.142 187.99Z" fill="currentColor"/>
<path d="M148.394 143.242C145.981 122.693 122.673 99.2301 150.689 63.9078C143.149 80.0421 152.465 101.333 149.395 122.561C152.179 102.991 176.225 86.3538 178.154 84.9295C176.691 104.602 151.844 125.116 148.394 143.242ZM446.958 143.242C449.371 122.693 472.68 99.2301 444.663 63.9078C452.203 80.0421 442.888 101.333 445.957 122.561C443.173 102.991 419.127 86.3538 417.199 84.9295C418.661 104.602 443.508 125.116 446.958 143.242Z" fill="currentColor"/>
<path d="M153.004 103.723C153.694 87.0958 145.479 51.164 176.266 41.2457C162.644 53.8848 166.567 67.152 159.618 84.8197C163.571 74.9133 188.848 61.1397 192.602 53.3896C189.715 77.8542 158.762 89.4962 153.004 103.723ZM442.348 103.723C441.659 87.0958 449.873 51.164 419.086 41.2457C432.708 53.8848 428.785 67.152 435.734 84.8197C431.781 74.9133 406.504 61.1397 402.75 53.3896C405.637 77.8542 436.591 89.4962 442.348 103.723Z" fill="currentColor"/>
<path d="M168.548 68.366C181.643 62.9242 202.834 30.8072 207.613 25.7415C197.1 28.4149 173.223 35.3205 168.548 68.366ZM426.805 68.366C413.709 62.9242 392.518 30.8072 387.74 25.7415C398.253 28.4149 422.13 35.3205 426.805 68.366Z" fill="currentColor"/>
<path d="M297.712 263.93C329.755 263.93 355.731 212.159 355.731 148.296C355.731 84.4328 329.755 32.6617 297.712 32.6617C265.668 32.6617 239.692 84.4328 239.692 148.296C239.692 212.159 265.668 263.93 297.712 263.93Z" stroke="currentColor" stroke-width="7.944"/>
<path d="M382.832 69.0878C376.709 75.2615 365.176 80.6096 349.86 84.3776C334.544 88.1457 316.218 90.1434 297.468 90.0891C278.718 90.0347 260.491 87.9309 245.357 84.0746C230.223 80.2182 218.947 74.8039 213.12 68.5956" stroke="currentColor" stroke-width="7.944"/>
<path d="M382.686 227.674C376.563 221.5 365.03 216.152 349.714 212.384C334.398 208.616 316.072 206.618 297.322 206.672C278.572 206.727 260.344 208.831 245.211 212.687C230.077 216.543 218.801 221.958 212.974 228.166" stroke="currentColor" stroke-width="7.944"/>
<path d="M297.857 264.434C362.036 264.434 414.064 212.406 414.064 148.227C414.064 84.0474 362.036 32.0197 297.857 32.0197C233.677 32.0197 181.65 84.0474 181.65 148.227C181.65 212.406 233.677 264.434 297.857 264.434Z" stroke="currentColor" stroke-width="8.03043"/>
<path d="M301.922 34.1556H293.439V263.218H301.922V34.1556Z" fill="currentColor"/>
<path d="M411.615 152.281V143.798H182.553V152.281H411.615Z" fill="currentColor"/>
</svg>
